<svg width="91" height="24" viewBox="0 0 91 24" fill="none" xmlns="http://www.w3.org/2000/svg">
<g clip-path="url(#clip0_27_273)">
<path d="M9.09805 20.25C7.28138 20.25 5.67305 20.1667 4.27305 20C2.87305 19.8333 1.86471 19.6667 1.24805 19.5V18.75L0.748047 15.575C1.06471 15.8417 1.58971 16.125 2.32305 16.425C3.05638 16.725 3.99805 16.9833 5.14805 17.2C6.29805 17.4 7.63138 17.5 9.14805 17.5C10.0814 17.5 10.798 17.4417 11.298 17.325C11.798 17.1917 12.1397 17.0083 12.323 16.775C12.5064 16.5417 12.598 16.2667 12.598 15.95C12.598 15.55 12.4647 15.2417 12.198 15.025C11.9314 14.7917 11.448 14.6 10.748 14.45C10.0647 14.3 9.08971 14.1417 7.82305 13.975C6.30638 13.775 5.03971 13.5 4.02305 13.15C3.00638 12.8 2.24805 12.3083 1.74805 11.675C1.24805 11.025 0.998047 10.1667 0.998047 9.1C0.998047 8.23333 1.22305 7.475 1.67305 6.825C2.12305 6.175 2.84805 5.66667 3.84805 5.3C4.84805 4.93333 6.17305 4.75 7.82305 4.75C9.55638 4.75 11.0397 4.83333 12.273 5C13.5064 5.16667 14.3564 5.33333 14.823 5.5V6.25L15.573 9C15.1564 8.78333 14.5564 8.55833 13.773 8.325C12.9897 8.09167 12.0814 7.9 11.048 7.75C10.0147 7.58333 8.89805 7.5 7.69805 7.5C6.94805 7.5 6.36471 7.56667 5.94805 7.7C5.53138 7.81667 5.23138 7.99167 5.04805 8.225C4.88138 8.44167 4.79805 8.71667 4.79805 9.05C4.79805 9.45 4.94805 9.775 5.24805 10.025C5.56471 10.2583 6.07305 10.45 6.77305 10.6C7.47305 10.75 8.41471 10.8917 9.59805 11.025C11.4147 11.225 12.8147 11.525 13.798 11.925C14.7814 12.325 15.4564 12.8417 15.823 13.475C16.2064 14.0917 16.398 14.8417 16.398 15.725C16.398 16.4917 16.2564 17.1667 15.973 17.75C15.6897 18.3167 15.248 18.7833 14.648 19.15C14.0647 19.5167 13.3064 19.7917 12.373 19.975C11.4564 20.1583 10.3647 20.25 9.09805 20.25ZM18.6744 20C18.7911 20 18.8994 19.8833 18.9994 19.65C19.1161 19.4167 19.1744 19.0333 19.1744 18.5V6.5C19.1744 5.96667 19.1161 5.59167 18.9994 5.375C18.8827 5.14167 18.7661 5.01667 18.6494 5H26.8494C28.2661 5 29.4077 5.20833 30.2744 5.625C31.1577 6.025 31.8077 6.60833 32.2244 7.375C32.6411 8.125 32.8494 9.025 32.8494 10.075C32.8494 11.1417 32.6411 12.0667 32.2244 12.85C31.8077 13.6167 31.1577 14.2083 30.2744 14.625C29.4077 15.025 28.2661 15.225 26.8494 15.225H23.0244V18.5C23.0244 19.0333 23.0827 19.4167 23.1994 19.65C23.3161 19.8833 23.4327 20 23.5494 20H18.6744ZM24.0494 12.475H25.2994C26.2827 12.475 27.0411 12.3917 27.5744 12.225C28.1244 12.0583 28.5077 11.8 28.7244 11.45C28.9411 11.1 29.0494 10.6417 29.0494 10.075C29.0494 9.525 28.9327 9.08333 28.6994 8.75C28.4827 8.41667 28.1161 8.18333 27.5994 8.05C27.0994 7.9 26.4161 7.825 25.5494 7.825H24.0494C23.5327 7.825 23.2327 7.85833 23.1494 7.925C23.0661 7.975 23.0244 8.16667 23.0244 8.5V11.775C23.0244 12.1083 23.0661 12.3083 23.1494 12.375C23.2327 12.4417 23.5327 12.475 24.0494 12.475ZM31.7049 20C31.7882 20 31.9132 19.8833 32.0799 19.65C32.2632 19.4167 32.4715 19.025 32.7049 18.475C32.8215 18.225 33.0049 17.8 33.2549 17.2C33.5215 16.5833 33.8215 15.875 34.1549 15.075C34.5049 14.2583 34.8632 13.4083 35.2299 12.525C35.6132 11.6417 35.9715 10.7917 36.3049 9.975C36.6549 9.15833 36.9549 8.44167 37.2049 7.825C37.4715 7.20833 37.6549 6.76667 37.7549 6.5C37.9715 5.96667 38.0882 5.58333 38.1049 5.35C38.1215 5.11667 38.0882 5 38.0049 5H43.4549C43.3882 5 43.3632 5.11667 43.3799 5.35C43.3966 5.56667 43.5132 5.95 43.7299 6.5C43.8299 6.76667 44.0049 7.20833 44.2549 7.825C44.5049 8.425 44.7966 9.13333 45.1299 9.95C45.4632 10.75 45.8132 11.5917 46.1799 12.475C46.5466 13.3583 46.8966 14.2083 47.2299 15.025C47.5632 15.825 47.8632 16.5333 48.1299 17.15C48.3965 17.7667 48.5882 18.2083 48.7049 18.475C48.9549 19.025 49.1965 19.4167 49.4299 19.65C49.6632 19.8833 49.8382 20 49.9549 20H44.2799C44.4132 19.9833 44.5215 19.8583 44.6049 19.625C44.7049 19.375 44.7049 18.9917 44.6049 18.475C44.5882 18.3583 44.5715 18.2667 44.5549 18.2C44.5382 18.1167 44.5049 18 44.4549 17.85C44.3882 17.6 44.3132 17.425 44.2299 17.325C44.1465 17.2083 44.0049 17.1417 43.8049 17.125C43.6215 17.1083 43.3132 17.1 42.8799 17.1H38.5799C38.1299 17.1 37.7965 17.1167 37.5799 17.15C37.3632 17.1667 37.2132 17.225 37.1299 17.325C37.0465 17.425 36.9799 17.5917 36.9299 17.825C36.9132 17.9083 36.8882 18.0167 36.8549 18.15C36.8382 18.2833 36.8215 18.3917 36.8049 18.475C36.6882 19.0083 36.6549 19.3917 36.7049 19.625C36.7715 19.8583 36.8549 19.9833 36.9549 20H31.7049ZM39.2299 14.35H42.1549C42.6382 14.35 42.9049 14.3083 42.9549 14.225C43.0049 14.1417 42.9799 13.9583 42.8799 13.675C42.6632 13.1417 42.4465 12.6 42.2299 12.05C42.0132 11.4833 41.8049 10.9333 41.6049 10.4C41.4215 9.86667 41.2549 9.375 41.1049 8.925C40.9716 8.45833 40.8549 8.06667 40.7549 7.75H40.7049C40.4715 8.36667 40.2299 9.01667 39.9799 9.7C39.7299 10.3833 39.4965 11.0167 39.2799 11.6C39.0632 12.1833 38.8882 12.6667 38.7549 13.05C38.6215 13.4167 38.5549 13.6 38.5549 13.6C38.4382 13.8667 38.3965 14.0583 38.4299 14.175C38.4632 14.2917 38.7299 14.35 39.2299 14.35ZM58.1023 20.25C55.2357 20.25 53.0857 19.6333 51.6523 18.4C50.2357 17.15 49.5273 15.1833 49.5273 12.5C49.5273 10.95 49.819 9.6 50.4023 8.45C50.9857 7.28333 51.9107 6.375 53.1773 5.725C54.444 5.075 56.0857 4.75 58.1023 4.75C59.6857 4.75 61.0023 4.83333 62.0523 5C63.1023 5.16667 63.8107 5.33333 64.1773 5.5V6.25L64.6773 9C64.3607 8.78333 63.8857 8.55833 63.2523 8.325C62.6357 8.09167 61.894 7.9 61.0273 7.75C60.1607 7.58333 59.2023 7.5 58.1523 7.5C57.0023 7.5 56.069 7.68333 55.3523 8.05C54.6523 8.41667 54.1357 8.975 53.8023 9.725C53.4857 10.4583 53.3273 11.3833 53.3273 12.5C53.3273 13.6167 53.4857 14.5417 53.8023 15.275C54.1357 16.0083 54.7023 16.5583 55.5023 16.925C56.319 17.2917 57.444 17.475 58.8773 17.475C60.3107 17.475 61.5023 17.275 62.4523 16.875C63.419 16.475 64.0773 16.0917 64.4273 15.725V16.475L64.6773 19C64.394 19.2667 63.7023 19.5417 62.6023 19.825C61.519 20.1083 60.019 20.25 58.1023 20.25ZM66.916 20C67.0327 20 67.141 19.8917 67.241 19.675C67.3577 19.4417 67.416 19.05 67.416 18.5V6.5C67.416 5.96667 67.3577 5.58333 67.241 5.35C67.141 5.11667 67.0327 5 66.916 5H71.741C71.6243 5 71.5077 5.11667 71.391 5.35C71.2743 5.56667 71.216 5.95833 71.216 6.525V18.5C71.216 19.0333 71.2743 19.4167 71.391 19.65C71.5077 19.8833 71.6243 20 71.741 20H66.916ZM72.9402 20C73.0236 20 73.1486 19.8833 73.3152 19.65C73.4986 19.4167 73.7069 19.025 73.9402 18.475C74.0569 18.225 74.2402 17.8 74.4902 17.2C74.7569 16.5833 75.0569 15.875 75.3902 15.075C75.7402 14.2583 76.0986 13.4083 76.4652 12.525C76.8486 11.6417 77.2069 10.7917 77.5402 9.975C77.8902 9.15833 78.1902 8.44167 78.4402 7.825C78.7069 7.20833 78.8902 6.76667 78.9902 6.5C79.2069 5.96667 79.3236 5.58333 79.3402 5.35C79.3569 5.11667 79.3236 5 79.2402 5H84.6902C84.6236 5 84.5986 5.11667 84.6152 5.35C84.6319 5.56667 84.7486 5.95 84.9652 6.5C85.0652 6.76667 85.2402 7.20833 85.4902 7.825C85.7402 8.425 86.0319 9.13333 86.3652 9.95C86.6986 10.75 87.0486 11.5917 87.4152 12.475C87.7819 13.3583 88.1319 14.2083 88.4652 15.025C88.7986 15.825 89.0986 16.5333 89.3652 17.15C89.6319 17.7667 89.8236 18.2083 89.9402 18.475C90.1902 19.025 90.4319 19.4167 90.6652 19.65C90.8986 19.8833 91.0736 20 91.1902 20H85.5152C85.6486 19.9833 85.7569 19.8583 85.8402 19.625C85.9402 19.375 85.9402 18.9917 85.8402 18.475C85.8236 18.3583 85.8069 18.2667 85.7902 18.2C85.7736 18.1167 85.7402 18 85.6902 17.85C85.6236 17.6 85.5486 17.425 85.4652 17.325C85.3819 17.2083 85.2402 17.1417 85.0402 17.125C84.8569 17.1083 84.5486 17.1 84.1152 17.1H79.8152C79.3652 17.1 79.0319 17.1167 78.8152 17.15C78.5986 17.1667 78.4486 17.225 78.3652 17.325C78.2819 17.425 78.2152 17.5917 78.1652 17.825C78.1486 17.9083 78.1236 18.0167 78.0902 18.15C78.0736 18.2833 78.0569 18.3917 78.0402 18.475C77.9236 19.0083 77.8902 19.3917 77.9402 19.625C78.0069 19.8583 78.0902 19.9833 78.1902 20H72.9402ZM80.4652 14.35H83.3902C83.8736 14.35 84.1402 14.3083 84.1902 14.225C84.2402 14.1417 84.2152 13.9583 84.1152 13.675C83.8986 13.1417 83.6819 12.6 83.4652 12.05C83.2486 11.4833 83.0402 10.9333 82.8402 10.4C82.6569 9.86667 82.4902 9.375 82.3402 8.925C82.2069 8.45833 82.0902 8.06667 81.9902 7.75H81.9402C81.7069 8.36667 81.4652 9.01667 81.2152 9.7C80.9652 10.3833 80.7319 11.0167 80.5152 11.6C80.2986 12.1833 80.1236 12.6667 79.9902 13.05C79.8569 13.4167 79.7902 13.6 79.7902 13.6C79.6736 13.8667 79.6319 14.0583 79.6652 14.175C79.6986 14.2917 79.9652 14.35 80.4652 14.35Z" fill="#1E1E1E"/>
</g>
<defs>
<clipPath id="clip0_27_273">
<rect width="91" height="24" fill="white"/>
</clipPath>
</defs>
</svg>
