<svg width="114" height="30" viewBox="0 0 114 30" fill="none" xmlns="http://www.w3.org/2000/svg">
<g clip-path="url(#clip0_202_462)">
<path d="M11.3726 25.5625C9.10173 25.5625 7.09131 25.4583 5.34131 25.25C3.59131 25.0417 2.33089 24.8333 1.56006 24.625V23.6875L0.935059 19.7187C1.33089 20.0521 1.98714 20.4062 2.90381 20.7812C3.82048 21.1562 4.99756 21.4792 6.43506 21.75C7.87256 22 9.53923 22.125 11.4351 22.125C12.6017 22.125 13.4976 22.0521 14.1226 21.9062C14.7476 21.7396 15.1746 21.5104 15.4038 21.2187C15.633 20.9271 15.7476 20.5833 15.7476 20.1875C15.7476 19.6875 15.5809 19.3021 15.2476 19.0312C14.9142 18.7396 14.3101 18.5 13.4351 18.3125C12.5809 18.125 11.3621 17.9271 9.77881 17.7187C7.88298 17.4687 6.29964 17.125 5.02881 16.6875C3.75798 16.25 2.81006 15.6354 2.18506 14.8437C1.56006 14.0312 1.24756 12.9583 1.24756 11.625C1.24756 10.5417 1.52881 9.59375 2.09131 8.78125C2.65381 7.96875 3.56006 7.33333 4.81006 6.875C6.06006 6.41667 7.71631 6.1875 9.77881 6.1875C11.9455 6.1875 13.7996 6.29167 15.3413 6.5C16.883 6.70833 17.9455 6.91667 18.5288 7.125V8.0625L19.4663 11.5C18.9455 11.2292 18.1955 10.9479 17.2163 10.6562C16.2371 10.3646 15.1017 10.125 13.8101 9.9375C12.5184 9.72917 11.1226 9.625 9.62256 9.625C8.68506 9.625 7.95589 9.70833 7.43506 9.875C6.91423 10.0208 6.53923 10.2396 6.31006 10.5312C6.10173 10.8021 5.99756 11.1458 5.99756 11.5625C5.99756 12.0625 6.18506 12.4687 6.56006 12.7812C6.95589 13.0729 7.59131 13.3125 8.46631 13.5C9.34131 13.6875 10.5184 13.8646 11.9976 14.0312C14.2684 14.2812 16.0184 14.6562 17.2476 15.1562C18.4767 15.6562 19.3205 16.3021 19.7788 17.0937C20.258 17.8646 20.4976 18.8021 20.4976 19.9062C20.4976 20.8646 20.3205 21.7083 19.9663 22.4375C19.6121 23.1458 19.0601 23.7292 18.3101 24.1875C17.5809 24.6458 16.633 24.9896 15.4663 25.2187C14.3205 25.4479 12.9559 25.5625 11.3726 25.5625ZM23.343 25.25C23.4889 25.25 23.6243 25.1042 23.7493 24.8125C23.8951 24.5208 23.968 24.0417 23.968 23.375V8.375C23.968 7.70833 23.8951 7.23958 23.7493 6.96875C23.6034 6.67708 23.4576 6.52083 23.3118 6.5H33.5618C35.3326 6.5 36.7597 6.76042 37.843 7.28125C38.9472 7.78125 39.7597 8.51042 40.2805 9.46875C40.8014 10.4062 41.0618 11.5312 41.0618 12.8437C41.0618 14.1771 40.8014 15.3333 40.2805 16.3125C39.7597 17.2708 38.9472 18.0104 37.843 18.5312C36.7597 19.0312 35.3326 19.2812 33.5618 19.2812H28.7805V23.375C28.7805 24.0417 28.8534 24.5208 28.9993 24.8125C29.1451 25.1042 29.2909 25.25 29.4368 25.25H23.343ZM30.0618 15.8437H31.6243C32.8534 15.8437 33.8014 15.7396 34.468 15.5312C35.1555 15.3229 35.6347 15 35.9055 14.5625C36.1764 14.125 36.3118 13.5521 36.3118 12.8437C36.3118 12.1562 36.1659 11.6042 35.8743 11.1875C35.6034 10.7708 35.1451 10.4792 34.4993 10.3125C33.8743 10.125 33.0201 10.0312 31.9368 10.0312H30.0618C29.4159 10.0312 29.0409 10.0729 28.9368 10.1562C28.8326 10.2187 28.7805 10.4583 28.7805 10.875V14.9687C28.7805 15.3854 28.8326 15.6354 28.9368 15.7187C29.0409 15.8021 29.4159 15.8437 30.0618 15.8437ZM39.6311 25.25C39.7353 25.25 39.8915 25.1042 40.0999 24.8125C40.329 24.5208 40.5894 24.0312 40.8811 23.3437C41.0269 23.0312 41.2561 22.5 41.5686 21.75C41.9019 20.9792 42.2769 20.0937 42.6936 19.0937C43.1311 18.0729 43.579 17.0104 44.0374 15.9062C44.5165 14.8021 44.9644 13.7396 45.3811 12.7187C45.8186 11.6979 46.1936 10.8021 46.5061 10.0312C46.8394 9.26042 47.0686 8.70833 47.1936 8.375C47.4644 7.70833 47.6103 7.22917 47.6311 6.9375C47.6519 6.64583 47.6103 6.5 47.5061 6.5H54.3186C54.2353 6.5 54.204 6.64583 54.2249 6.9375C54.2457 7.20833 54.3915 7.6875 54.6624 8.375C54.7874 8.70833 55.0061 9.26042 55.3186 10.0312C55.6311 10.7812 55.9957 11.6667 56.4124 12.6875C56.829 13.6875 57.2665 14.7396 57.7249 15.8437C58.1832 16.9479 58.6207 18.0104 59.0374 19.0312C59.454 20.0312 59.829 20.9167 60.1624 21.6875C60.4957 22.4583 60.7353 23.0104 60.8811 23.3437C61.1936 24.0312 61.4957 24.5208 61.7874 24.8125C62.079 25.1042 62.2978 25.25 62.4436 25.25H55.3499C55.5165 25.2292 55.6519 25.0729 55.7561 24.7812C55.8811 24.4687 55.8811 23.9896 55.7561 23.3437C55.7353 23.1979 55.7144 23.0833 55.6936 23C55.6728 22.8958 55.6311 22.75 55.5686 22.5625C55.4853 22.25 55.3915 22.0312 55.2874 21.9062C55.1832 21.7604 55.0061 21.6771 54.7561 21.6562C54.5269 21.6354 54.1415 21.625 53.5999 21.625H48.2249C47.6624 21.625 47.2457 21.6458 46.9749 21.6875C46.704 21.7083 46.5165 21.7812 46.4124 21.9062C46.3082 22.0312 46.2249 22.2396 46.1624 22.5312C46.1415 22.6354 46.1103 22.7708 46.0686 22.9375C46.0478 23.1042 46.0269 23.2396 46.0061 23.3437C45.8603 24.0104 45.8186 24.4896 45.8811 24.7812C45.9644 25.0729 46.0686 25.2292 46.1936 25.25H39.6311ZM49.0374 18.1875H52.6936C53.2978 18.1875 53.6311 18.1354 53.6936 18.0312C53.7561 17.9271 53.7249 17.6979 53.5999 17.3437C53.329 16.6771 53.0582 16 52.7874 15.3125C52.5165 14.6042 52.2561 13.9167 52.0061 13.25C51.7769 12.5833 51.5686 11.9687 51.3811 11.4062C51.2144 10.8229 51.0686 10.3333 50.9436 9.9375H50.8811C50.5894 10.7083 50.2874 11.5208 49.9749 12.375C49.6624 13.2292 49.3707 14.0208 49.0999 14.75C48.829 15.4792 48.6103 16.0833 48.4436 16.5625C48.2769 17.0208 48.1936 17.25 48.1936 17.25C48.0478 17.5833 47.9957 17.8229 48.0374 17.9687C48.079 18.1146 48.4124 18.1875 49.0374 18.1875ZM72.6279 25.5625C69.0446 25.5625 66.3571 24.7917 64.5654 23.25C62.7946 21.6875 61.9092 19.2292 61.9092 15.875C61.9092 13.9375 62.2738 12.25 63.0029 10.8125C63.7321 9.35417 64.8883 8.21875 66.4717 7.40625C68.055 6.59375 70.1071 6.1875 72.6279 6.1875C74.6071 6.1875 76.2529 6.29167 77.5654 6.5C78.8779 6.70833 79.7633 6.91667 80.2217 7.125V8.0625L80.8467 11.5C80.4508 11.2292 79.8571 10.9479 79.0654 10.6562C78.2946 10.3646 77.3675 10.125 76.2842 9.9375C75.2008 9.72917 74.0029 9.625 72.6904 9.625C71.2529 9.625 70.0863 9.85417 69.1904 10.3125C68.3154 10.7708 67.6696 11.4687 67.2529 12.4062C66.8571 13.3229 66.6592 14.4792 66.6592 15.875C66.6592 17.2708 66.8571 18.4271 67.2529 19.3437C67.6696 20.2604 68.3779 20.9479 69.3779 21.4062C70.3988 21.8646 71.805 22.0937 73.5967 22.0937C75.3883 22.0937 76.8779 21.8437 78.0654 21.3438C79.2738 20.8437 80.0967 20.3646 80.5342 19.9062V20.8437L80.8467 24C80.4925 24.3333 79.6279 24.6771 78.2529 25.0312C76.8988 25.3854 75.0238 25.5625 72.6279 25.5625ZM83.645 25.25C83.7909 25.25 83.9263 25.1146 84.0513 24.8437C84.1971 24.5521 84.27 24.0625 84.27 23.375V8.375C84.27 7.70833 84.1971 7.22917 84.0513 6.9375C83.9263 6.64583 83.7909 6.5 83.645 6.5H89.6763C89.5304 6.5 89.3846 6.64583 89.2388 6.9375C89.0929 7.20833 89.02 7.69792 89.02 8.40625V23.375C89.02 24.0417 89.0929 24.5208 89.2388 24.8125C89.3846 25.1042 89.5304 25.25 89.6763 25.25H83.645ZM91.1753 25.25C91.2795 25.25 91.4357 25.1042 91.644 24.8125C91.8732 24.5208 92.1336 24.0312 92.4253 23.3437C92.5711 23.0312 92.8003 22.5 93.1128 21.75C93.4461 20.9792 93.8211 20.0937 94.2378 19.0937C94.6753 18.0729 95.1232 17.0104 95.5815 15.9062C96.0607 14.8021 96.5086 13.7396 96.9253 12.7187C97.3628 11.6979 97.7378 10.8021 98.0503 10.0312C98.3836 9.26042 98.6128 8.70833 98.7378 8.375C99.0086 7.70833 99.1545 7.22917 99.1753 6.9375C99.1961 6.64583 99.1545 6.5 99.0503 6.5H105.863C105.779 6.5 105.748 6.64583 105.769 6.9375C105.79 7.20833 105.936 7.6875 106.207 8.375C106.332 8.70833 106.55 9.26042 106.863 10.0312C107.175 10.7812 107.54 11.6667 107.957 12.6875C108.373 13.6875 108.811 14.7396 109.269 15.8437C109.727 16.9479 110.165 18.0104 110.582 19.0312C110.998 20.0312 111.373 20.9167 111.707 21.6875C112.04 22.4583 112.279 23.0104 112.425 23.3437C112.738 24.0312 113.04 24.5208 113.332 24.8125C113.623 25.1042 113.842 25.25 113.988 25.25H106.894C107.061 25.2292 107.196 25.0729 107.3 24.7812C107.425 24.4687 107.425 23.9896 107.3 23.3437C107.279 23.1979 107.259 23.0833 107.238 23C107.217 22.8958 107.175 22.75 107.113 22.5625C107.029 22.25 106.936 22.0312 106.832 21.9062C106.727 21.7604 106.55 21.6771 106.3 21.6562C106.071 21.6354 105.686 21.625 105.144 21.625H99.769C99.2065 21.625 98.7899 21.6458 98.519 21.6875C98.2482 21.7083 98.0607 21.7812 97.9565 21.9062C97.8524 22.0312 97.769 22.2396 97.7065 22.5312C97.6857 22.6354 97.6545 22.7708 97.6128 22.9375C97.592 23.1042 97.5711 23.2396 97.5503 23.3437C97.4045 24.0104 97.3628 24.4896 97.4253 24.7812C97.5086 25.0729 97.6128 25.2292 97.7378 25.25H91.1753ZM100.582 18.1875H104.238C104.842 18.1875 105.175 18.1354 105.238 18.0312C105.3 17.9271 105.269 17.6979 105.144 17.3437C104.873 16.6771 104.602 16 104.332 15.3125C104.061 14.6042 103.8 13.9167 103.55 13.25C103.321 12.5833 103.113 11.9687 102.925 11.4062C102.759 10.8229 102.613 10.3333 102.488 9.9375H102.425C102.134 10.7083 101.832 11.5208 101.519 12.375C101.207 13.2292 100.915 14.0208 100.644 14.75C100.373 15.4792 100.154 16.0833 99.9878 16.5625C99.8211 17.0208 99.7378 17.25 99.7378 17.25C99.592 17.5833 99.5399 17.8229 99.5815 17.9687C99.6232 18.1146 99.9565 18.1875 100.582 18.1875Z" fill="url(#paint0_linear_202_462)"/>
</g>
<defs>
<linearGradient id="paint0_linear_202_462" x1="-1.25" y1="-3.75" x2="113.698" y2="38.7695" gradientUnits="userSpaceOnUse">
<stop stop-color="#37448B"/>
<stop offset="1" stop-color="#3B8BBE"/>
</linearGradient>
<clipPath id="clip0_202_462">
<rect width="113.75" height="30" fill="white"/>
</clipPath>
</defs>
</svg>
