<svg width="345" height="200" viewBox="0 0 345 200" fill="none" xmlns="http://www.w3.org/2000/svg">
<mask id="path-1-inside-1_44_645" fill="white">
<path fill-rule="evenodd" clip-rule="evenodd" d="M0 15C0 6.71573 6.71573 0 15 0H330C338.284 0 345 6.71573 345 15V106C335.059 106 327 114.059 327 124C327 133.941 335.059 142 345 142V185C345 193.284 338.284 200 330 200H15C6.71573 200 0 193.284 0 185V142C9.94113 142 18 133.941 18 124C18 114.059 9.94113 106 0 106V15Z"/>
</mask>
<path fill-rule="evenodd" clip-rule="evenodd" d="M0 15C0 6.71573 6.71573 0 15 0H330C338.284 0 345 6.71573 345 15V106C335.059 106 327 114.059 327 124C327 133.941 335.059 142 345 142V185C345 193.284 338.284 200 330 200H15C6.71573 200 0 193.284 0 185V142C9.94113 142 18 133.941 18 124C18 114.059 9.94113 106 0 106V15Z" fill="white"/>
<path d="M345 106V107H346V106H345ZM345 142H346V141H345V142ZM0 142V141H-1V142H0ZM0 106H-1V107H0V106ZM15 -1C6.16344 -1 -1 6.16344 -1 15H1C1 7.26801 7.26801 1 15 1V-1ZM330 -1H15V1H330V-1ZM346 15C346 6.16345 338.837 -1 330 -1V1C337.732 1 344 7.26801 344 15H346ZM346 106V15H344V106H346ZM328 124C328 114.611 335.611 107 345 107V105C334.507 105 326 113.507 326 124H328ZM345 141C335.611 141 328 133.389 328 124H326C326 134.493 334.507 143 345 143V141ZM346 185V142H344V185H346ZM330 201C338.837 201 346 193.837 346 185H344C344 192.732 337.732 199 330 199V201ZM15 201H330V199H15V201ZM-1 185C-1 193.837 6.16344 201 15 201V199C7.26801 199 1 192.732 1 185H-1ZM-1 142V185H1V142H-1ZM17 124C17 133.389 9.38884 141 0 141V143C10.4934 143 19 134.493 19 124H17ZM0 107C9.38884 107 17 114.611 17 124H19C19 113.507 10.4934 105 0 105V107ZM-1 15V106H1V15H-1Z" fill="#E4E4E4" mask="url(#path-1-inside-1_44_645)"/>
<path d="M19 124H326" stroke="#E4E4E4" stroke-linecap="round" stroke-dasharray="4 4"/>
</svg>
